ply
format ascii 1.0
comment UludagFormula af_mesh_export
comment object AF_Surface_Nose
element vertex 48
property float x
property float y
property float z
element face 38
property list uchar int vertex_index
end_header
1.6499999999999999 0.29999999999999999 0.20000000000000001
1.6499999999999999 0.27420659730032693 0.31671555991859091
1.6499999999999999 0.19452593319765146 0.36452395838019613
1.6499999999999999 2.207924861715123e-11 0.38
1.6499999999999999 -0.19452593319765138 0.36452395838019613
1.6499999999999999 -0.27420659730032693 0.31671555991859091
1.6499999999999999 -0.29999999999999999 0.20000000002043053
1.6499999999999999 -0.27420659730032693 0.083284440081409186
1.6499999999999999 -0.19452593319765155 0.035476041619803916
1.6499999999999999 -4.3871761681239659e-11 0.020000000000000018
1.6499999999999999 0.19452593319765146 0.035476041619803889
1.6499999999999999 0.27420659730032682 0.083284440081409089
2.1000000000000001 0.22 0.20000000000000001
2.1000000000000001 0.20108483802023974 0.29077876882557069
2.1000000000000001 0.14265235101161108 0.32796307874015257
2.1000000000000001 1.6191448985910901e-11 0.34000000000000002
2.1000000000000001 -0.142652351011611 0.32796307874015262
2.1000000000000001 -0.20108483802023974 0.29077876882557069
2.1000000000000001 -0.22 0.20000000001589041
2.1000000000000001 -0.20108483802023977 0.10922123117442936
2.1000000000000001 -0.14265235101161114 0.072036921259847481
2.1000000000000001 -3.2172625232909084e-11 0.059999999999999998
2.1000000000000001 0.14265235101161108 0.072036921259847453
2.1000000000000001 0.20108483802023969 0.10922123117442928
2.5 0.12 0.20000000000000001
2.5 0.10968263892013076 0.25835777995929543
2.5 0.077810373279060582 0.2822619791900981
2.5 8.8316994468604914e-12 0.29000000000000004
2.5 -0.077810373279060555 0.2822619791900981
2.5 -0.10968263892013076 0.25835777995929543
2.5 -0.12 0.20000000001021526
2.5 -0.10968263892013078 0.14164222004070459
2.5 -0.07781037327906061 0.11773802080990196
2.5 -1.7548704672495862e-11 0.11000000000000001
2.5 0.077810373279060582 0.11773802080990195
2.5 0.10968263892013073 0.14164222004070454
2.7999999999999998 0.040000000000000001 0.20000000000000001
2.7999999999999998 0.036560879640043592 0.21945259331976516
2.7999999999999998 0.025936791093020196 0.2274206597300327
2.7999999999999998 2.9438998156201639e-12 0.23000000000000001
2.7999999999999998 -0.025936791093020186 0.2274206597300327
2.7999999999999998 -0.036560879640043592 0.21945259331976516
2.7999999999999998 -0.040000000000000001 0.20000000000340509
2.7999999999999998 -0.036560879640043592 0.18054740668023486
2.7999999999999998 -0.025936791093020207 0.17257934026996732
2.7999999999999998 -5.8495682241652874e-12 0.17000000000000001
2.7999999999999998 0.025936791093020196 0.17257934026996732
2.7999999999999998 0.036560879640043578 0.18054740668023486
4 0 1 13 12
4 1 2 14 13
4 2 3 15 14
4 3 4 16 15
4 4 5 17 16
4 5 6 18 17
4 6 7 19 18
4 7 8 20 19
4 8 9 21 20
4 9 10 22 21
4 10 11 23 22
4 11 0 12 23
4 12 13 25 24
4 13 14 26 25
4 14 15 27 26
4 15 16 28 27
4 16 17 29 28
4 17 18 30 29
4 18 19 31 30
4 19 20 32 31
4 20 21 33 32
4 21 22 34 33
4 22 23 35 34
4 23 12 24 35
4 24 25 37 36
4 25 26 38 37
4 26 27 39 38
4 27 28 40 39
4 28 29 41 40
4 29 30 42 41
4 30 31 43 42
4 31 32 44 43
4 32 33 45 44
4 33 34 46 45
4 34 35 47 46
4 35 24 36 47
12 36 37 38 39 40 41 42 43 44 45 46 47
12 11 10 9 8 7 6 5 4 3 2 1 0
