ply
format ascii 1.0
comment UludagFormula af_mesh_export
comment object AF_Surface_EndplateFront_L
element vertex 24
property float x
property float y
property float z
element face 14
property list uchar int vertex_index
end_header
2.54 0.89999999999999991 0.14000000000000001
2.5128891043238593 0.89999999999999991 0.20734772289856238
2.4346954457971246 0.89999999999999991 0.24644455216192984
2.3000000000000074 0.89999999999999991 0.26000000000000001
2.165304554202875 0.89999999999999991 0.24644455216192984
2.0871108956761404 0.89999999999999991 0.20734772289856238
2.0599999999999996 0.89999999999999991 0.14000000000000662
2.0871108956761399 0.89999999999999991 0.072652277101437679
2.165304554202875 0.89999999999999991 0.033555447838070213
2.2999999999999812 0.89999999999999991 0.020000000000000018
2.4346954457971246 0.89999999999999991 0.033555447838070199
2.5128891043238593 0.89999999999999991 0.072652277101437596
2.54 0.97999999999999998 0.14000000000000001
2.5128891043238593 0.97999999999999998 0.20734772289856238
2.4346954457971246 0.97999999999999998 0.24644455216192984
2.3000000000000074 0.97999999999999998 0.26000000000000001
2.165304554202875 0.97999999999999998 0.24644455216192984
2.0871108956761404 0.97999999999999998 0.20734772289856238
2.0599999999999996 0.97999999999999998 0.14000000000000662
2.0871108956761399 0.97999999999999998 0.072652277101437679
2.165304554202875 0.97999999999999998 0.033555447838070213
2.2999999999999812 0.97999999999999998 0.020000000000000018
2.4346954457971246 0.97999999999999998 0.033555447838070199
2.5128891043238593 0.97999999999999998 0.072652277101437596
4 12 13 1 0
4 13 14 2 1
4 14 15 3 2
4 15 16 4 3
4 16 17 5 4
4 17 18 6 5
4 18 19 7 6
4 19 20 8 7
4 20 21 9 8
4 21 22 10 9
4 22 23 11 10
4 23 12 0 11
12 23 22 21 20 19 18 17 16 15 14 13 12
12 0 1 2 3 4 5 6 7 8 9 10 11
