ply
format ascii 1.0
comment UludagFormula af_mesh_export
comment object AF_Surface_FrontWing
element vertex 60
property float x
property float y
property float z
element face 50
property list uchar int vertex_index
end_header
2.5099999999999998 -0.94999999999999996 0.059999999999999998
2.4862779662833772 -0.94999999999999996 0.076836930724640595
2.4178585150724841 -0.94999999999999996 0.086611138040482455
2.3000000000000065 -0.94999999999999996 0.089999999999999997
2.1821414849275156 -0.94999999999999996 0.086611138040482455
2.1137220337166225 -0.94999999999999996 0.076836930724640595
2.0899999999999999 -0.94999999999999996 0.060000000000001649
2.1137220337166225 -0.94999999999999996 0.043163069275359414
2.1821414849275156 -0.94999999999999996 0.033388861959517548
2.2999999999999838 -0.94999999999999996 0.029999999999999999
2.4178585150724841 -0.94999999999999996 0.033388861959517541
2.4862779662833772 -0.94999999999999996 0.043163069275359393
2.5099999999999998 -0.45000000000000001 0.059999999999999998
2.4862779662833772 -0.45000000000000001 0.076836930724640595
2.4178585150724841 -0.45000000000000001 0.086611138040482455
2.3000000000000065 -0.45000000000000001 0.089999999999999997
2.1821414849275156 -0.45000000000000001 0.086611138040482455
2.1137220337166225 -0.45000000000000001 0.076836930724640595
2.0899999999999999 -0.45000000000000001 0.060000000000001649
2.1137220337166225 -0.45000000000000001 0.043163069275359414
2.1821414849275156 -0.45000000000000001 0.033388861959517548
2.2999999999999838 -0.45000000000000001 0.029999999999999999
2.4178585150724841 -0.45000000000000001 0.033388861959517541
2.4862779662833772 -0.45000000000000001 0.043163069275359393
2.5099999999999998 0 0.059999999999999998
2.4862779662833772 0 0.076836930724640595
2.4178585150724841 0 0.086611138040482455
2.3000000000000065 0 0.089999999999999997
2.1821414849275156 0 0.086611138040482455
2.1137220337166225 0 0.076836930724640595
2.0899999999999999 0 0.060000000000001649
2.1137220337166225 0 0.043163069275359414
2.1821414849275156 0 0.033388861959517548
2.2999999999999838 0 0.029999999999999999
2.4178585150724841 0 0.033388861959517541
2.4862779662833772 0 0.043163069275359393
2.5099999999999998 0.45000000000000001 0.059999999999999998
2.4862779662833772 0.45000000000000001 0.076836930724640595
2.4178585150724841 0.45000000000000001 0.086611138040482455
2.3000000000000065 0.45000000000000001 0.089999999999999997
2.1821414849275156 0.45000000000000001 0.086611138040482455
2.1137220337166225 0.45000000000000001 0.076836930724640595
2.0899999999999999 0.45000000000000001 0.060000000000001649
2.1137220337166225 0.45000000000000001 0.043163069275359414
2.1821414849275156 0.45000000000000001 0.033388861959517548
2.2999999999999838 0.45000000000000001 0.029999999999999999
2.4178585150724841 0.45000000000000001 0.033388861959517541
2.4862779662833772 0.45000000000000001 0.043163069275359393
2.5099999999999998 0.94999999999999996 0.059999999999999998
2.4862779662833772 0.94999999999999996 0.076836930724640595
2.4178585150724841 0.94999999999999996 0.086611138040482455
2.3000000000000065 0.94999999999999996 0.089999999999999997
2.1821414849275156 0.94999999999999996 0.086611138040482455
2.1137220337166225 0.94999999999999996 0.076836930724640595
2.0899999999999999 0.94999999999999996 0.060000000000001649
2.1137220337166225 0.94999999999999996 0.043163069275359414
2.1821414849275156 0.94999999999999996 0.033388861959517548
2.2999999999999838 0.94999999999999996 0.029999999999999999
2.4178585150724841 0.94999999999999996 0.033388861959517541
2.4862779662833772 0.94999999999999996 0.043163069275359393
4 12 13 1 0
4 13 14 2 1
4 14 15 3 2
4 15 16 4 3
4 16 17 5 4
4 17 18 6 5
4 18 19 7 6
4 19 20 8 7
4 20 21 9 8
4 21 22 10 9
4 22 23 11 10
4 23 12 0 11
4 24 25 13 12
4 25 26 14 13
4 26 27 15 14
4 27 28 16 15
4 28 29 17 16
4 29 30 18 17
4 30 31 19 18
4 31 32 20 19
4 32 33 21 20
4 33 34 22 21
4 34 35 23 22
4 35 24 12 23
4 36 37 25 24
4 37 38 26 25
4 38 39 27 26
4 39 40 28 27
4 40 41 29 28
4 41 42 30 29
4 42 43 31 30
4 43 44 32 31
4 44 45 33 32
4 45 46 34 33
4 46 47 35 34
4 47 36 24 35
4 48 49 37 36
4 49 50 38 37
4 50 51 39 38
4 51 52 40 39
4 52 53 41 40
4 53 54 42 41
4 54 55 43 42
4 55 56 44 43
4 56 57 45 44
4 57 58 46 45
4 58 59 47 46
4 59 48 36 47
12 59 58 57 56 55 54 53 52 51 50 49 48
12 0 1 2 3 4 5 6 7 8 9 10 11
