ply
format ascii 1.0
comment UludagFormula af_mesh_export
comment object AF_Surface_Monocoque
element vertex 48
property float x
property float y
property float z
element face 38
property list uchar int vertex_index
end_header
-0.75 0.35999999999999999 0.28999999999999998
-0.75 0.3290479167603923 0.46507333987788629
-0.75 0.23343111983718176 0.53678593757029414
-0.75 2.6495098340581474e-11 0.56000000000000005
-0.75 -0.23343111983718165 0.53678593757029425
-0.75 -0.3290479167603923 0.46507333987788629
-0.75 -0.35999999999999999 0.29000000003064574
-0.75 -0.3290479167603923 0.11492666012211372
-0.75 -0.23343111983718184 0.043214062429705796
-0.75 -5.2646114017487586e-11 0.019999999999999962
-0.75 0.23343111983718176 0.043214062429705768
-0.75 0.32904791676039219 0.11492666012211358
0.10000000000000001 0.35999999999999999 0.28999999999999998
0.10000000000000001 0.3290479167603923 0.46507333987788629
0.10000000000000001 0.23343111983718176 0.53678593757029414
0.10000000000000001 2.6495098340581474e-11 0.56000000000000005
0.10000000000000001 -0.23343111983718165 0.53678593757029425
0.10000000000000001 -0.3290479167603923 0.46507333987788629
0.10000000000000001 -0.35999999999999999 0.29000000003064574
0.10000000000000001 -0.3290479167603923 0.11492666012211372
0.10000000000000001 -0.23343111983718184 0.043214062429705796
0.10000000000000001 -5.2646114017487586e-11 0.019999999999999962
0.10000000000000001 0.23343111983718176 0.043214062429705768
0.10000000000000001 0.32904791676039219 0.11492666012211358
0.90000000000000002 0.34000000000000002 0.28999999999999998
0.90000000000000002 0.31076747694037055 0.4585891421046312
0.90000000000000002 0.22046272429067168 0.52764571766028334
0.90000000000000002 2.5023148432771396e-11 0.55000000000000004
0.90000000000000002 -0.22046272429067157 0.52764571766028334
0.90000000000000002 -0.31076747694037055 0.4585891421046312
0.90000000000000002 -0.34000000000000002 0.29000000002951071
0.90000000000000002 -0.31076747694037055 0.12141085789536879
0.90000000000000002 -0.22046272429067176 0.052354282339716701
0.90000000000000002 -4.9721329905404946e-11 0.029999999999999971
0.90000000000000002 0.22046272429067168 0.052354282339716673
0.90000000000000002 0.31076747694037044 0.12141085789536862
1.6499999999999999 0.29999999999999999 0.28999999999999998
1.6499999999999999 0.27420659730032693 0.40671555991859087
1.6499999999999999 0.19452593319765146 0.4545239583801961
1.6499999999999999 2.207924861715123e-11 0.46999999999999997
1.6499999999999999 -0.19452593319765138 0.4545239583801961
1.6499999999999999 -0.27420659730032693 0.40671555991859087
1.6499999999999999 -0.29999999999999999 0.29000000002043047
1.6499999999999999 -0.27420659730032693 0.17328444008140914
1.6499999999999999 -0.19452593319765155 0.12547604161980389
1.6499999999999999 -4.3871761681239659e-11 0.10999999999999999
1.6499999999999999 0.19452593319765146 0.12547604161980386
1.6499999999999999 0.27420659730032682 0.17328444008140906
4 0 1 13 12
4 1 2 14 13
4 2 3 15 14
4 3 4 16 15
4 4 5 17 16
4 5 6 18 17
4 6 7 19 18
4 7 8 20 19
4 8 9 21 20
4 9 10 22 21
4 10 11 23 22
4 11 0 12 23
4 12 13 25 24
4 13 14 26 25
4 14 15 27 26
4 15 16 28 27
4 16 17 29 28
4 17 18 30 29
4 18 19 31 30
4 19 20 32 31
4 20 21 33 32
4 21 22 34 33
4 22 23 35 34
4 23 12 24 35
4 24 25 37 36
4 25 26 38 37
4 26 27 39 38
4 27 28 40 39
4 28 29 41 40
4 29 30 42 41
4 30 31 43 42
4 31 32 44 43
4 32 33 45 44
4 33 34 46 45
4 34 35 47 46
4 35 24 36 47
12 36 37 38 39 40 41 42 43 44 45 46 47
12 11 10 9 8 7 6 5 4 3 2 1 0
