ply
format ascii 1.0
comment UludagFormula af_mesh_export
comment object AF_Surface_Sidepod_R
element vertex 36
property float x
property float y
property float z
element face 26
property list uchar int vertex_index
end_header
-0.29999999999999999 -0.82999999999999996 0.28000000000000003
-0.29999999999999999 -0.80800350001815069 0.39734604600046264
-0.29999999999999999 -0.7432133483004858 0.45905095239823884
-0.29999999999999999 -0.62000000000007094 0.48000000000000004
-0.29999999999999999 -0.49678665169951425 0.4590509523982389
-0.29999999999999999 -0.43199649998184925 0.39734604600046264
-0.29999999999999999 -0.41000000000000003 0.2800000000001151
-0.29999999999999999 -0.43199649998184919 0.16265395399953742
-0.29999999999999999 -0.49678665169951414 0.10094904760176124
-0.29999999999999999 -0.61999999999983491 0.080000000000000016
-0.29999999999999999 -0.7432133483004858 0.10094904760176121
-0.29999999999999999 -0.80800350001815069 0.1626539539995373
0.40000000000000002 -0.82999999999999996 0.28000000000000003
0.40000000000000002 -0.80800350001815069 0.39734604600046264
0.40000000000000002 -0.7432133483004858 0.45905095239823884
0.40000000000000002 -0.62000000000007094 0.48000000000000004
0.40000000000000002 -0.49678665169951425 0.4590509523982389
0.40000000000000002 -0.43199649998184925 0.39734604600046264
0.40000000000000002 -0.41000000000000003 0.2800000000001151
0.40000000000000002 -0.43199649998184919 0.16265395399953742
0.40000000000000002 -0.49678665169951414 0.10094904760176124
0.40000000000000002 -0.61999999999983491 0.080000000000000016
0.40000000000000002 -0.7432133483004858 0.10094904760176121
0.40000000000000002 -0.80800350001815069 0.1626539539995373
1.1000000000000001 -0.73999999999999999 0.28000000000000003
1.1000000000000001 -0.7274305714389433 0.36214223220032388
1.1000000000000001 -0.69040762760027763 0.40533566667876719
1.1000000000000001 -0.62000000000004052 0.42000000000000004
1.1000000000000001 -0.54959237239972247 0.40533566667876719
1.1000000000000001 -0.51256942856105669 0.36214223220032388
1.1000000000000001 -0.5 0.28000000000008057
1.1000000000000001 -0.51256942856105669 0.1978577677996762
1.1000000000000001 -0.54959237239972236 0.15466433332123286
1.1000000000000001 -0.61999999999990563 0.14000000000000001
1.1000000000000001 -0.69040762760027763 0.15466433332123286
1.1000000000000001 -0.7274305714389433 0.19785776779967612
4 12 13 1 0
4 13 14 2 1
4 14 15 3 2
4 15 16 4 3
4 16 17 5 4
4 17 18 6 5
4 18 19 7 6
4 19 20 8 7
4 20 21 9 8
4 21 22 10 9
4 22 23 11 10
4 23 12 0 11
4 24 25 13 12
4 25 26 14 13
4 26 27 15 14
4 27 28 16 15
4 28 29 17 16
4 29 30 18 17
4 30 31 19 18
4 31 32 20 19
4 32 33 21 20
4 33 34 22 21
4 34 35 23 22
4 35 24 12 23
12 35 34 33 32 31 30 29 28 27 26 25 24
12 0 1 2 3 4 5 6 7 8 9 10 11
