ply
format ascii 1.0
comment UludagFormula af_mesh_export
comment object AF_Surface_EndplateRear_R
element vertex 24
property float x
property float y
property float z
element face 14
property list uchar int vertex_index
end_header
-2.3499999999999996 -0.5 0.81999999999999995
-2.3754164646963813 -0.5 0.88734772289856234
-2.4487230195651954 -0.5 0.92644455216192978
-2.5749999999999926 -0.5 0.93999999999999995
-2.701276980434804 -0.5 0.92644455216192978
-2.7745835353036181 -0.5 0.88734772289856234
-2.7999999999999998 -0.5 0.8200000000000065
-2.7745835353036181 -0.5 0.75265227710143767
-2.7012769804348045 -0.5 0.71355544783807012
-2.5750000000000171 -0.5 0.69999999999999996
-2.4487230195651954 -0.5 0.71355544783807012
-2.3754164646963813 -0.5 0.75265227710143756
-2.3499999999999996 -0.56000000000000005 0.81999999999999995
-2.3754164646963813 -0.56000000000000005 0.88734772289856234
-2.4487230195651954 -0.56000000000000005 0.92644455216192978
-2.5749999999999926 -0.56000000000000005 0.93999999999999995
-2.701276980434804 -0.56000000000000005 0.92644455216192978
-2.7745835353036181 -0.56000000000000005 0.88734772289856234
-2.7999999999999998 -0.56000000000000005 0.8200000000000065
-2.7745835353036181 -0.56000000000000005 0.75265227710143767
-2.7012769804348045 -0.56000000000000005 0.71355544783807012
-2.5750000000000171 -0.56000000000000005 0.69999999999999996
-2.4487230195651954 -0.56000000000000005 0.71355544783807012
-2.3754164646963813 -0.56000000000000005 0.75265227710143756
4 0 1 13 12
4 1 2 14 13
4 2 3 15 14
4 3 4 16 15
4 4 5 17 16
4 5 6 18 17
4 6 7 19 18
4 7 8 20 19
4 8 9 21 20
4 9 10 22 21
4 10 11 23 22
4 11 0 12 23
12 12 13 14 15 16 17 18 19 20 21 22 23
12 11 10 9 8 7 6 5 4 3 2 1 0
