ply
format ascii 1.0
comment UludagFormula af_mesh_export
comment object AF_Surface_RearWing
element vertex 36
property float x
property float y
property float z
element face 26
property list uchar int vertex_index
end_header
-2.3499999999999996 -0.5 0.81999999999999995
-2.3754164646963813 -0.5 0.83964308584541403
-2.4487230195651954 -0.5 0.8510463277138961
-2.5749999999999926 -0.5 0.85499999999999998
-2.701276980434804 -0.5 0.85104632771389621
-2.7745835353036181 -0.5 0.83964308584541403
-2.7999999999999998 -0.5 0.82000000000000184
-2.7745835353036181 -0.5 0.80035691415458599
-2.7012769804348045 -0.5 0.7889536722861038
-2.5750000000000171 -0.5 0.78499999999999992
-2.4487230195651954 -0.5 0.7889536722861038
-2.3754164646963813 -0.5 0.80035691415458587
-2.3499999999999996 0 0.81999999999999995
-2.3754164646963813 0 0.83964308584541403
-2.4487230195651954 0 0.8510463277138961
-2.5749999999999926 0 0.85499999999999998
-2.701276980434804 0 0.85104632771389621
-2.7745835353036181 0 0.83964308584541403
-2.7999999999999998 0 0.82000000000000184
-2.7745835353036181 0 0.80035691415458599
-2.7012769804348045 0 0.7889536722861038
-2.5750000000000171 0 0.78499999999999992
-2.4487230195651954 0 0.7889536722861038
-2.3754164646963813 0 0.80035691415458587
-2.3499999999999996 0.5 0.81999999999999995
-2.3754164646963813 0.5 0.83964308584541403
-2.4487230195651954 0.5 0.8510463277138961
-2.5749999999999926 0.5 0.85499999999999998
-2.701276980434804 0.5 0.85104632771389621
-2.7745835353036181 0.5 0.83964308584541403
-2.7999999999999998 0.5 0.82000000000000184
-2.7745835353036181 0.5 0.80035691415458599
-2.7012769804348045 0.5 0.7889536722861038
-2.5750000000000171 0.5 0.78499999999999992
-2.4487230195651954 0.5 0.7889536722861038
-2.3754164646963813 0.5 0.80035691415458587
4 12 13 1 0
4 13 14 2 1
4 14 15 3 2
4 15 16 4 3
4 16 17 5 4
4 17 18 6 5
4 18 19 7 6
4 19 20 8 7
4 20 21 9 8
4 21 22 10 9
4 22 23 11 10
4 23 12 0 11
4 24 25 13 12
4 25 26 14 13
4 26 27 15 14
4 27 28 16 15
4 28 29 17 16
4 29 30 18 17
4 30 31 19 18
4 31 32 20 19
4 32 33 21 20
4 33 34 22 21
4 34 35 23 22
4 35 24 12 23
12 35 34 33 32 31 30 29 28 27 26 25 24
12 0 1 2 3 4 5 6 7 8 9 10 11
