ply
format ascii 1.0
comment UludagFormula af_mesh_export
comment object AF_Surface_Tail
element vertex 36
property float x
property float y
property float z
element face 26
property list uchar int vertex_index
end_header
-2.1000000000000001 0.14000000000000001 0.28999999999999998
-2.1000000000000001 0.12796307874015259 0.38077876882557066
-2.1000000000000001 0.090778768825570705 0.41796307874015254
-2.1000000000000001 1.0303649354670574e-11 0.42999999999999999
-2.1000000000000001 -0.090778768825570649 0.41796307874015259
-2.1000000000000001 -0.12796307874015259 0.38077876882557066
-2.1000000000000001 -0.14000000000000001 0.29000000001589038
-2.1000000000000001 -0.12796307874015259 0.19922123117442933
-2.1000000000000001 -0.090778768825570733 0.16203692125984745
-2.1000000000000001 -2.0473488784578509e-11 0.14999999999999997
-2.1000000000000001 0.090778768825570705 0.16203692125984742
-2.1000000000000001 0.12796307874015253 0.19922123117442925
-1.5 0.26000000000000001 0.28999999999999998
-1.5 0.23764571766028333 0.43265235101161104
-1.5 0.1685891421046313 0.49108483802023972
-1.5 1.9135348801531067e-11 0.51000000000000001
-1.5 -0.16858914210463119 0.49108483802023972
-1.5 -0.23764571766028333 0.43265235101161104
-1.5 -0.26000000000000001 0.29000000002497062
-1.5 -0.23764571766028336 0.14734764898838898
-1.5 -0.16858914210463136 0.088915161979760293
-1.5 -3.8022193457074371e-11 0.069999999999999979
-1.5 0.1685891421046313 0.088915161979760265
-1.5 0.23764571766028328 0.14734764898838884
-0.75 0.35999999999999999 0.28999999999999998
-0.75 0.3290479167603923 0.46507333987788629
-0.75 0.23343111983718176 0.53678593757029414
-0.75 2.6495098340581474e-11 0.56000000000000005
-0.75 -0.23343111983718165 0.53678593757029425
-0.75 -0.3290479167603923 0.46507333987788629
-0.75 -0.35999999999999999 0.29000000003064574
-0.75 -0.3290479167603923 0.11492666012211372
-0.75 -0.23343111983718184 0.043214062429705796
-0.75 -5.2646114017487586e-11 0.019999999999999962
-0.75 0.23343111983718176 0.043214062429705768
-0.75 0.32904791676039219 0.11492666012211358
4 0 1 13 12
4 1 2 14 13
4 2 3 15 14
4 3 4 16 15
4 4 5 17 16
4 5 6 18 17
4 6 7 19 18
4 7 8 20 19
4 8 9 21 20
4 9 10 22 21
4 10 11 23 22
4 11 0 12 23
4 12 13 25 24
4 13 14 26 25
4 14 15 27 26
4 15 16 28 27
4 16 17 29 28
4 17 18 30 29
4 18 19 31 30
4 19 20 32 31
4 20 21 33 32
4 21 22 34 33
4 22 23 35 34
4 23 12 24 35
12 24 25 26 27 28 29 30 31 32 33 34 35
12 11 10 9 8 7 6 5 4 3 2 1 0
