ply
format ascii 1.0
comment UludagFormula af_mesh_export
comment object AF_Surface_Halo
element vertex 104
property float x
property float y
property float z
element face 98
property list uchar int vertex_index
end_header
0.69565560570267249 0 0.67264558630166527
0.70278591370848065 0.017677669529663688 0.6743114888375672
0.71999999999999997 0.025000000000000001 0.67833333333333334
0.7372140862915193 0.017677669529663691 0.68235517782909949
0.74434439429732746 3.0616169978683832e-18 0.68402108036500142
0.7372140862915193 -0.017677669529663688 0.68235517782909949
0.71999999999999997 -0.025000000000000001 0.67833333333333334
0.70278591370848065 -0.017677669529663691 0.6743114888375672
0.6831114218006975 0 0.72885125907219872
0.68972419655196948 0.017677669529663688 0.7319957357545348
0.70568884704140866 0.025000000000000001 0.73958717400759655
0.72165349753084784 0.017677669529663691 0.74717861226065829
0.72826627228211982 3.0616169978683832e-18 0.75032308894299438
0.72165349753084784 -0.017677669529663688 0.74717861226065829
0.70568884704140866 -0.025000000000000001 0.73958717400759655
0.68972419655196948 -0.017677669529663691 0.7319957357545348
0.64626902507001749 0 0.77877558031964811
0.65138342233909452 0.017677669529663688 0.78401575818789571
0.66373066958946425 0.025000000000000001 0.79666666666666663
0.67607791683983398 0.017677669529663691 0.80931757514543756
0.68119231410891101 3.0616169978683832e-18 0.81455775301368516
0.67607791683983398 -0.017677669529663688 0.80931757514543756
0.66373066958946425 -0.025000000000000001 0.79666666666666663
0.65138342233909452 -0.017677669529663691 0.78401575818789582
0.58471190673777929 0 0.82390178875736209
0.58830656803718562 0.017677669529663688 0.83028104683799864
0.59698484809834995 0.025000000000000001 0.8456819382141495
0.60566312815951429 0.017677669529663691 0.86108282959030036
0.60925778945892062 3.0616169978683832e-18 0.86746208767093691
0.60566312815951429 -0.017677669529663688 0.86108282959030036
0.59698484809834995 -0.025000000000000001 0.8456819382141495
0.58830656803718562 -0.017677669529663691 0.83028104683799864
0.50226570342908883 0 0.85951915041220495
0.50453102644700076 0.017677669529663688 0.86648225569227455
0.51000000000000001 0.025000000000000001 0.88329267889565033
0.51546897355299925 0.017677669529663691 0.90010310209902611
0.51773429657091119 3.0616169978683832e-18 0.90706620737909571
0.51546897355299925 -0.017677669529663688 0.90010310209902611
0.51000000000000001 -0.025000000000000001 0.88329267889565033
0.50453102644700076 -0.017677669529663691 0.86648225569227455
0.4049716218904541 0 0.88221596170589311
0.40606480981921694 0.017677669529663688 0.88945622852896133
0.4087039989430587 0.025000000000000001 0.9069357788884127
0.41134318806690046 0.017677669529663691 0.92441532924786407
0.4124363759956633 3.0616169978683832e-18 0.93165559607093229
0.41134318806690046 -0.017677669529663688 0.92441532924786407
0.4087039989430587 -0.025000000000000001 0.9069357788884127
0.40606480981921694 -0.017677669529663691 0.88945622852896133
0.29999999999999999 0 0.8899999999999999
0.29999999999999999 0.017677669529663688 0.89732233047033627
0.29999999999999999 0.025000000000000001 0.91499999999999992
0.29999999999999999 0.017677669529663691 0.93267766952966358
0.29999999999999999 3.0616169978683832e-18 0.93999999999999995
0.29999999999999999 -0.017677669529663688 0.93267766952966358
0.29999999999999999 -0.025000000000000001 0.91499999999999992
0.29999999999999999 -0.017677669529663691 0.89732233047033627
0.19502837810954593 0 0.88221596170589311
0.19393519018078309 0.017677669529663688 0.88945622852896133
0.19129600105694133 0.025000000000000001 0.9069357788884127
0.18865681193309958 0.017677669529663691 0.92441532924786407
0.18756362400433674 3.0616169978683832e-18 0.93165559607093229
0.18865681193309958 -0.017677669529663688 0.92441532924786407
0.19129600105694133 -0.025000000000000001 0.9069357788884127
0.19393519018078309 -0.017677669529663691 0.88945622852896133
0.097734296570911317 0 0.85951915041220506
0.09546897355299927 0.017677669529663688 0.86648225569227466
0.09000000000000008 0.025000000000000001 0.88329267889565044
0.08453102644700089 0.017677669529663691 0.90010310209902622
0.082265703429088843 3.0616169978683832e-18 0.90706620737909582
0.08453102644700089 -0.017677669529663688 0.90010310209902622
0.09000000000000008 -0.025000000000000001 0.88329267889565044
0.09546897355299927 -0.017677669529663691 0.86648225569227466
0.015288093262220725 0 0.82390178875736209
0.011693431962814438 0.017677669529663688 0.83028104683799864
0.0030151519016500825 0.025000000000000001 0.8456819382141495
-0.0056631281595142732 0.017677669529663691 0.86108282959030036
-0.0092577894589205619 3.0616169978683832e-18 0.86746208767093691
-0.005663128159514275 -0.017677669529663688 0.86108282959030036
0.0030151519016500795 -0.025000000000000001 0.8456819382141495
0.011693431962814435 -0.017677669529663691 0.83028104683799864
-0.046269025070017469 0 0.77877558031964811
-0.051383422339094528 0.017677669529663688 0.78401575818789571
-0.063730669589464273 0.025000000000000001 0.79666666666666663
-0.076077916839834017 0.017677669529663691 0.80931757514543756
-0.081192314108911076 3.0616169978683832e-18 0.81455775301368516
-0.076077916839834017 -0.017677669529663688 0.80931757514543756
-0.063730669589464273 -0.025000000000000001 0.79666666666666663
-0.051383422339094528 -0.017677669529663691 0.78401575818789582
-0.083111421800697471 0 0.72885125907219872
-0.089724196551969448 0.017677669529663688 0.7319957357545348
-0.10568884704140863 0.025000000000000001 0.73958717400759655
-0.12165349753084781 0.017677669529663691 0.74717861226065829
-0.12826627228211979 3.0616169978683832e-18 0.75032308894299438
-0.12165349753084781 -0.017677669529663688 0.74717861226065829
-0.10568884704140863 -0.025000000000000001 0.73958717400759655
-0.089724196551969448 -0.017677669529663691 0.7319957357545348
-0.095655605702672522 0 0.67264558630166527
-0.10278591370848061 0.017677669529663688 0.6743114888375672
-0.12 0.025000000000000001 0.67833333333333334
-0.13721408629151938 0.017677669529663691 0.68235517782909949
-0.14434439429732748 3.0616169978683832e-18 0.68402108036500142
-0.13721408629151938 -0.017677669529663688 0.68235517782909949
-0.12 -0.025000000000000001 0.67833333333333334
-0.10278591370848063 -0.017677669529663691 0.6743114888375672
4 8 9 1 0
4 9 10 2 1
4 10 11 3 2
4 11 12 4 3
4 12 13 5 4
4 13 14 6 5
4 14 15 7 6
4 15 8 0 7
4 16 17 9 8
4 17 18 10 9
4 18 19 11 10
4 19 20 12 11
4 20 21 13 12
4 21 22 14 13
4 22 23 15 14
4 23 16 8 15
4 24 25 17 16
4 25 26 18 17
4 26 27 19 18
4 27 28 20 19
4 28 29 21 20
4 29 30 22 21
4 30 31 23 22
4 31 24 16 23
4 32 33 25 24
4 33 34 26 25
4 34 35 27 26
4 35 36 28 27
4 36 37 29 28
4 37 38 30 29
4 38 39 31 30
4 39 32 24 31
4 40 41 33 32
4 41 42 34 33
4 42 43 35 34
4 43 44 36 35
4 44 45 37 36
4 45 46 38 37
4 46 47 39 38
4 47 40 32 39
4 48 49 41 40
4 49 50 42 41
4 50 51 43 42
4 51 52 44 43
4 52 53 45 44
4 53 54 46 45
4 54 55 47 46
4 55 48 40 47
4 56 57 49 48
4 57 58 50 49
4 58 59 51 50
4 59 60 52 51
4 60 61 53 52
4 61 62 54 53
4 62 63 55 54
4 63 56 48 55
4 64 65 57 56
4 65 66 58 57
4 66 67 59 58
4 67 68 60 59
4 68 69 61 60
4 69 70 62 61
4 70 71 63 62
4 71 64 56 63
4 72 73 65 64
4 73 74 66 65
4 74 75 67 66
4 75 76 68 67
4 76 77 69 68
4 77 78 70 69
4 78 79 71 70
4 79 72 64 71
4 80 81 73 72
4 81 82 74 73
4 82 83 75 74
4 83 84 76 75
4 84 85 77 76
4 85 86 78 77
4 86 87 79 78
4 87 80 72 79
4 88 89 81 80
4 89 90 82 81
4 90 91 83 82
4 91 92 84 83
4 92 93 85 84
4 93 94 86 85
4 94 95 87 86
4 95 88 80 87
4 96 97 89 88
4 97 98 90 89
4 98 99 91 90
4 99 100 92 91
4 100 101 93 92
4 101 102 94 93
4 102 103 95 94
4 103 96 88 95
8 103 102 101 100 99 98 97 96
8 0 1 2 3 4 5 6 7
