ply
format ascii 1.0
comment UludagFormula af_mesh_export
comment object AF_Surface_EndplateRear_L
element vertex 24
property float x
property float y
property float z
element face 14
property list uchar int vertex_index
end_header
-2.3499999999999996 0.5 0.81999999999999995
-2.3754164646963813 0.5 0.88734772289856234
-2.4487230195651954 0.5 0.92644455216192978
-2.5749999999999926 0.5 0.93999999999999995
-2.701276980434804 0.5 0.92644455216192978
-2.7745835353036181 0.5 0.88734772289856234
-2.7999999999999998 0.5 0.8200000000000065
-2.7745835353036181 0.5 0.75265227710143767
-2.7012769804348045 0.5 0.71355544783807012
-2.5750000000000171 0.5 0.69999999999999996
-2.4487230195651954 0.5 0.71355544783807012
-2.3754164646963813 0.5 0.75265227710143756
-2.3499999999999996 0.56000000000000005 0.81999999999999995
-2.3754164646963813 0.56000000000000005 0.88734772289856234
-2.4487230195651954 0.56000000000000005 0.92644455216192978
-2.5749999999999926 0.56000000000000005 0.93999999999999995
-2.701276980434804 0.56000000000000005 0.92644455216192978
-2.7745835353036181 0.56000000000000005 0.88734772289856234
-2.7999999999999998 0.56000000000000005 0.8200000000000065
-2.7745835353036181 0.56000000000000005 0.75265227710143767
-2.7012769804348045 0.56000000000000005 0.71355544783807012
-2.5750000000000171 0.56000000000000005 0.69999999999999996
-2.4487230195651954 0.56000000000000005 0.71355544783807012
-2.3754164646963813 0.56000000000000005 0.75265227710143756
4 12 13 1 0
4 13 14 2 1
4 14 15 3 2
4 15 16 4 3
4 16 17 5 4
4 17 18 6 5
4 18 19 7 6
4 19 20 8 7
4 20 21 9 8
4 21 22 10 9
4 22 23 11 10
4 23 12 0 11
12 23 22 21 20 19 18 17 16 15 14 13 12
12 0 1 2 3 4 5 6 7 8 9 10 11
